<svg xmlns="http://www.w3.org/2000/svg" version="1.1" xmlns:xlink="http://www.w3.org/1999/xlink" xmlns:svgjs="http://svgjs.dev/svgjs" width="1440" height="560" preserveAspectRatio="none" viewBox="0 0 1440 560">
    <g mask="url(&quot;#SvgjsMask1000&quot;)" fill="none">
        <rect width="1440" height="560" x="0" y="0" fill="#0e2a47"></rect>
        <path d="M970.9 118.85 a50.14 50.14 0 1 0 100.28 0 a50.14 50.14 0 1 0 -100.28 0z" stroke="#d3b714"></path>
        <path d="M378.24 99.16a11.86 11.86 0 1 0 23.58 2.54z" stroke="#037b0b"></path>
        <path d="M1349.69 423.36 a17.56 17.56 0 1 0 35.12 0 a17.56 17.56 0 1 0 -35.12 0z" fill="#d3b714"></path>
        <path d="M1241.22 103.96L1259.72 103.96L1259.72 117.8L1241.22 117.8z" stroke="#d3b714"></path>
        <path d="M323.53 214.37a53.57 53.57 0 1 0-43.05-98.11z" stroke="#d3b714"></path>
        <path d="M501.02 403.25 a13.14 13.14 0 1 0 26.28 0 a13.14 13.14 0 1 0 -26.28 0z" fill="#e73635"></path>
        <path d="M679.94 42.35 a32.02 32.02 0 1 0 64.04 0 a32.02 32.02 0 1 0 -64.04 0z" fill="#e73635"></path>
        <path d="M92.69 258.17L124.62 258.17L124.62 290.1L92.69 290.1z" fill="#e73635"></path>
        <path d="M56.45 87.84L63.99 87.84L63.99 95.38L56.45 95.38z" stroke="#d3b714"></path>
        <path d="M995.38 107.58L999.26 107.58L999.26 135.04L995.38 135.04z" fill="#037b0b"></path>
        <path d="M623.75 354.14 a45.09 45.09 0 1 0 90.18 0 a45.09 45.09 0 1 0 -90.18 0z" stroke="#d3b714"></path>
        <path d="M244.36 395.58a17.6 17.6 0 1 0 32.66 13.12z" fill="#e73635"></path>
        <path d="M357.89 361.65a23.92 23.92 0 1 0-25.82-40.28z" stroke="#d3b714"></path>
        <path d="M792.22 465.1L798.14 465.1L798.14 471.02L792.22 471.02z" stroke="#e73635"></path>
        <path d="M1027.76 148.04 a7.35 7.35 0 1 0 14.7 0 a7.35 7.35 0 1 0 -14.7 0z" fill="#d3b714"></path>
        <path d="M641.91 425.61L683.53 425.61L683.53 467.23L641.91 467.23z" fill="#037b0b"></path>
        <path d="M207.38 520.75L257.24 520.75L257.24 541.75L207.38 541.75z" stroke="#d3b714"></path>
        <path d="M796.32 334.29a13.8 13.8 0 1 0 16.16-22.37z" fill="#037b0b"></path>
        <path d="M772.33 101.09 a27.38 27.38 0 1 0 54.76 0 a27.38 27.38 0 1 0 -54.76 0z" stroke="#e73635"></path>
        <path d="M1112.79 447.25 a21.7 21.7 0 1 0 43.4 0 a21.7 21.7 0 1 0 -43.4 0z" fill="#d3b714"></path>
        <path d="M17.36 469.79L61.27 469.79L61.27 513.7L17.36 513.7z" stroke="#e73635"></path>
        <path d="M407.21 441.99L446.18 441.99L446.18 480.96L407.21 480.96z" fill="#037b0b"></path>
        <path d="M652.1 11.14 a5.54 5.54 0 1 0 11.08 0 a5.54 5.54 0 1 0 -11.08 0z" fill="#e73635"></path>
        <path d="M35.79 407.64L56.99 407.64L56.99 428.84L35.79 428.84z" fill="#e73635"></path>
        <path d="M125.86 408.27 a37.66 37.66 0 1 0 75.32 0 a37.66 37.66 0 1 0 -75.32 0z" fill="#037b0b"></path>
        <path d="M182.51 422.23L193.57 422.23L193.57 433.29L182.51 433.29z" fill="#d3b714"></path>
        <path d="M1270.12 152.64 a4.02 4.02 0 1 0 8.04 0 a4.02 4.02 0 1 0 -8.04 0z" stroke="#e73635"></path>
        <path d="M922.22 378.98L930.03 378.98L930.03 421.52L922.22 421.52z" stroke="#e73635"></path>
        <path d="M438.07 199.32 a51.58 51.58 0 1 0 103.16 0 a51.58 51.58 0 1 0 -103.16 0z" stroke="#e73635"></path>
        <path d="M170.9 299.7L193.72 299.7L193.72 331.08L170.9 331.08z" fill="#d3b714"></path>
        <path d="M494 527.6L544.73 527.6L544.73 578.33L494 578.33z" stroke="#e73635"></path>
        <path d="M276.41 396.73L290.49 396.73L290.49 422.92L276.41 422.92z" fill="#d3b714"></path>
        <path d="M1228.3 360.8 a51.32 51.32 0 1 0 102.64 0 a51.32 51.32 0 1 0 -102.64 0z" fill="#d3b714"></path>
    </g>
    <defs>
        <mask id="SvgjsMask1000">
            <rect width="1440" height="560" fill="#ffffff"></rect>
        </mask>
    </defs>
</svg>
